<?xml version="1.0" encoding="utf-8"?>
<!-- Generator: Adobe Illustrator 26.0.1, SVG Export Plug-In . SVG Version: 6.00 Build 0)  -->
<svg version="1.1" id="Layer_1" xmlns="http://www.w3.org/2000/svg" xmlns:xlink="http://www.w3.org/1999/xlink" x="0px" y="0px"
	 viewBox="0 0 200 200" style="enable-background:new 0 0 200 200;" xml:space="preserve">
<style type="text/css">
	
		.st0{clip-path:url(#SVGID_00000047773793357351734070000017747883561828275348_);fill:url(#SVGID_00000005969660214877146330000007231203260241410226_);}
	
		.st1{clip-path:url(#SVGID_00000047773793357351734070000017747883561828275348_);fill:url(#SVGID_00000037675433691746764820000014680604638849259702_);}
	
		.st2{clip-path:url(#SVGID_00000047773793357351734070000017747883561828275348_);fill:url(#SVGID_00000176755747200637024710000011761420062579562118_);}
	
		.st3{clip-path:url(#SVGID_00000047773793357351734070000017747883561828275348_);fill:url(#SVGID_00000111188527274279112690000007857856946106705325_);}
	.st4{fill:#E14459;}
	.st5{fill:#C73148;}
	.st6{fill:#FFFFFF;}
</style>
<g>
	<path class="st4" d="M53.89,19h92.22C165.38,19,181,34.62,181,53.89v92.22c0,19.27-15.62,34.89-34.89,34.89H53.89
		C34.62,181,19,165.38,19,146.11V53.89C19,34.62,34.62,19,53.89,19z"/>
	<path class="st5" d="M58.49,29.59c-2.54,0-4.6,2.06-4.6,4.59c0,2.54,2.07,4.59,4.61,4.59c2.54,0,4.61-2.06,4.61-4.59v-0.01
		C63.1,31.64,61.03,29.59,58.49,29.59L58.49,29.59z M140.93,29.59c-2.54,0-4.6,2.06-4.6,4.59c0,2.54,2.07,4.59,4.61,4.59
		c2.54,0,4.61-2.06,4.61-4.59v-0.01C145.54,31.64,143.47,29.58,140.93,29.59L140.93,29.59z"/>
	<path class="st6" d="M58.31,33.55c-1.6,0.09-1.52,2.41-1.52,2.41c8.61,16.76,24.46,24.99,42.74,24.99
		c18.25-0.03,34.26-8.34,42.86-25.08c0,0,0.34-3.15-3.01-2.06c-8.82,14.61-23.62,23.26-39.83,23.28c-16.23,0-30.99-8.55-39.83-23.19
		C59.13,33.63,58.68,33.53,58.31,33.55L58.31,33.55z M116.56,98.71l-4.9,14.58l-4.77-14.57h-4.65l7.51,21.2h3.62l4.91-13.93
		l4.9,13.93h3.65l7.5-21.2h-4.54l-4.78,14.57l-4.9-14.58L116.56,98.71z M90.55,98.71l-9.5,21.19h4.47l1.83-4.1l0.13-0.31h9.87
		l1.93,4.41h4.59l-9.42-21.07l-0.08-0.12H90.55z M159.37,98.71v21.18h4.32V98.71L159.37,98.71z M35.56,98.72v21.21h4.38v-8.61h9.88
		v8.61h4.38V98.72h-4.38v8.56h-9.88v-8.56L35.56,98.72z M74.45,98.72v12.14c0,3.45-1.74,5.29-4.9,5.29c-3.18,0-4.93-1.89-4.93-5.43
		V98.73h-4.38v12.13c0,5.97,3.38,9.39,9.25,9.39c5.93,0,9.33-3.49,9.33-9.56V98.72L74.45,98.72z M137.87,98.73v21.18h16.29v-3.86
		h-11.97v-5.25h7.96v-3.87h-7.96v-4.34h11.56v-3.86L137.87,98.73z M92.41,104.08l3.12,7.1l0.21,0.49h-6.62l0.21-0.49L92.41,104.08z"
		/>
</g>
</svg>
