<?xml version="1.0" encoding="utf-8"?>
<!-- Generator: Adobe Illustrator 26.0.1, SVG Export Plug-In . SVG Version: 6.00 Build 0)  -->
<svg version="1.1" id="Layer_1" xmlns="http://www.w3.org/2000/svg" xmlns:xlink="http://www.w3.org/1999/xlink" x="0px" y="0px"
	 viewBox="0 0 200 200" style="enable-background:new 0 0 200 200;" xml:space="preserve">
<style type="text/css">
	
		.st0{clip-path:url(#SVGID_00000039825984836508366580000002041012991765584829_);fill:url(#SVGID_00000011742917426811644780000018010966370934727809_);}
	
		.st1{clip-path:url(#SVGID_00000039825984836508366580000002041012991765584829_);fill:url(#SVGID_00000183947280323524902860000012682991516920460689_);}
	
		.st2{clip-path:url(#SVGID_00000039825984836508366580000002041012991765584829_);fill:url(#SVGID_00000166670482524319140710000016569041937926300819_);}
	
		.st3{clip-path:url(#SVGID_00000039825984836508366580000002041012991765584829_);fill:url(#SVGID_00000000200632657948630890000014123638611673278112_);}
	.st4{fill:#E14459;}
	.st5{fill:#C73148;}
	.st6{fill:#FFFFFF;}
</style>
<g>
	<path d="M166.26,136.03c-3.62,8.03-5.36,11.61-10.02,18.7c-6.51,9.91-15.68,22.24-27.04,22.35c-10.1,0.09-12.69-6.57-26.39-6.5
		c-13.7,0.07-16.56,6.61-26.66,6.52c-11.36-0.11-20.05-11.24-26.56-21.15c-18.19-27.7-20.1-60.2-8.88-77.48
		c7.98-12.28,20.55-19.47,32.38-19.47c12.04,0,19.61,6.61,29.57,6.61c9.66,0,15.55-6.62,29.47-6.62c10.52,0,21.68,5.73,29.62,15.64
		C135.72,88.9,139.95,126.09,166.26,136.03z"/>
	<g>
		<path d="M121.57,47.93c5.06-6.49,8.9-15.66,7.51-25.04c-8.26,0.57-17.93,5.83-23.58,12.68c-5.12,6.22-9.35,15.45-7.7,24.42
			C106.82,60.28,116.15,54.89,121.57,47.93z"/>
	</g>
</g>
</svg>
