<svg width="119" height="47" viewBox="0 0 119 47" fill="none" xmlns="http://www.w3.org/2000/svg"><g clip-path="url(#clip0_2255_7997)"><path d="M33.623 3.826c0-1.401.332-1.74 1.7-1.74h.577c1.369 0 1.71.339 1.71 1.74v5.862c.978-1.083 2.65-1.768 4.663-1.768 2.434 0 5.18 1.152 5.18 5.336v8.813c0 1.401-.332 1.74-1.7 1.74h-.577c-1.368 0-1.7-.339-1.7-1.74v-8.098c0-1.739-.978-2.216-2.542-2.216-1.769 0-3.274.716-3.274 3.756v6.578c0 1.401-.333 1.74-1.7 1.74h-.578c-1.368 0-1.7-.339-1.7-1.74l-.03-18.263h-.029zm20.809 14.626c0 1.58.46 2.454 2.952 2.454s2.913-.874 2.913-2.454v-7.88c0-1.4.332-1.738 1.7-1.738h.577c1.368 0 1.7.337 1.7 1.738v7.88c0 4.163-2.071 6.29-6.88 6.29-4.81 0-6.95-2.216-6.95-6.29v-7.88c0-1.4.333-1.738 1.701-1.738h.577c1.368 0 1.7.337 1.7 1.738l-.02 7.88h.03zm23.37-3.11c0-1.988-.518-3.07-3.274-3.07-2.757 0-3.323 1.082-3.323 3.07v2.484c0 1.987.576 3.07 3.323 3.07 2.746 0 3.274-1.083 3.274-3.07v-2.484zM67.256 4.362c0-1.401.332-1.739 1.7-1.739h.548c1.368 0 1.7.338 1.7 1.739v5.863c.792-1.084 2.073-1.77 4.174-1.77 4.242 0 6.392 2.545 6.392 6.986v2.474c0 4.87-2.707 6.797-7.271 6.797-4.018 0-7.253-1.928-7.253-6.797V4.362h.01zm25.51 16.326c-.704.129-1.417.189-2.13.189-1.124 0-1.877-.497-1.916-1.958.02-.08.03-.159.03-.238v-6.022h3.44c1.368 0 1.7-.338 1.7-1.739v-.338c0-1.4-.332-1.739-1.7-1.739h-3.44V6.518c0-1.4-.333-1.739-1.711-1.739h-.558c-1.368 0-1.71.338-1.71 1.74v2.136l-.03.188v9.927c0 .288.01.556.03.815 0 .288.03.576.108.844.557 3.22 2.824 4.263 5.747 4.263.713.02 1.436-.04 2.13-.189 1.34-.278 1.682-.805 1.682-2.215v-.338c0-1.401-.333-1.52-1.681-1.272m7.291-5.892h6.001v-.467c0-1.55-1.007-2.356-3.01-2.356-2.004 0-2.981.805-2.981 2.356v.466h-.01zm9.725 1.58c-.186 1.43-.577 1.709-1.984 1.709h-7.741v.466c0 1.61 1.153 2.355 3.998 2.355a19.128 19.128 0 0 0 3.684-.427c1.339-.278 1.613.09 1.613 1.48v.339c0 1.4-.274 1.669-1.613 2.017a15.574 15.574 0 0 1-3.714.397c-5.395 0-7.956-1.987-7.956-6.796V15.42c0-4.004 1.799-6.985 7.096-6.985 4.447 0 6.676 2.295 6.676 6.707 0 .408-.02.805-.059 1.212m2.737-11.992c0-1.401.332-1.739 1.71-1.739h.548c1.368 0 1.701.338 1.701 1.739V18.76c0 1.61.42 2.077 1.339 2.077h.156c.792 0 1.036.189 1.036 1.43v.597c0 1.242-.244 1.58-1.036 1.739a3.48 3.48 0 0 1-.909.06c-2.59 0-4.535-1.461-4.535-4.999V4.362h-.01z" fill="#092F4D"/><path d="M73.423 38.703c0-2.315 1.34-3.448 3.636-3.448 2.473 0 3.656 1.103 3.656 3.448v1.41c0 2.346-1.095 3.538-3.314 3.538-1.133 0-1.915-.357-2.345-1.053v3.388c0 .587-.147.726-.714.726h-.195c-.577 0-.714-.15-.714-.726v-7.273l-.01-.01zm5.64.05c0-1.362-.41-1.948-1.994-1.948-1.583 0-2.023.586-2.023 1.948v1.39c0 1.342.45 1.928 2.023 1.928 1.574 0 1.994-.566 1.994-1.927v-1.391zm3.225-5.893c0-.586.147-.725.714-.725h.205c.577 0 .714.149.714.725v8.019c0 .855.234 1.153.752 1.153s.606.08.606.646v.159c0 .536-.127.635-.655.745-.058.02-.146.02-.224.02-1.28 0-2.121-.765-2.121-2.395V32.86h.01zm10.762 6.46c-.069.595-.225.744-.812.744h-4.427v.358c0 1.183.674 1.65 2.277 1.65.655 0 1.34-.08 2.072-.259.508-.129.655 0 .655.567v.208c0 .537-.098.646-.655.795-.635.179-1.32.258-2.072.258-2.678 0-3.92-1.023-3.92-3.467v-1.411c0-2.355 1.183-3.518 3.539-3.518 2.219 0 3.382 1.153 3.382 3.359 0 .238-.02.467-.03.715m-5.248-.616h3.733v-.407c0-1.074-.625-1.6-1.876-1.6s-1.848.536-1.848 1.6v.407h-.01zm13.948 1.48c0 2.316-1.34 3.468-3.636 3.468-2.444 0-3.656-1.152-3.656-3.468v-1.39c0-2.356 1.114-3.538 3.333-3.538 1.114 0 1.896.358 2.326 1.053V32.86c0-.586.147-.725.714-.725h.195c.577 0 .714.149.714.725v7.323h.01zm-5.64-.03c0 1.362.41 1.928 1.994 1.928 1.583 0 2.023-.586 2.023-1.927v-1.392c0-1.36-.479-1.947-2.023-1.947s-1.994.586-1.994 1.948v1.39zm14.055-1.887c0 1.948-1.153 2.921-3.431 2.921-.762 0-1.261.03-1.485.1-.225.07-.333.208-.333.417 0 .179.108.308.352.378.235.07.714.099 1.466.099 1.388 0 2.326.179 2.854.517.528.337.782.944.782 1.798 0 .924-.274 1.57-.801 1.948-.528.377-1.466.566-2.835.566-1.368 0-2.375-.179-2.903-.536-.528-.358-.782-.905-.782-1.67 0-.765.284-1.291.841-1.64-.401-.248-.606-.635-.606-1.132 0-.725.41-1.182 1.261-1.391-.86-.417-1.29-1.212-1.29-2.365v-.15c0-1.817 1.29-2.87 3.479-2.87.557 0 1.056.079 1.515.258l.909-.795c.372-.328.557-.328.89.02l.146.149c.333.337.352.536.02.874l-.655.715c.401.408.606.954.606 1.65v.149-.01zm-4.877 5.266c-.401.18-.587.537-.587 1.034 0 .844.499 1.023 2.043 1.023s1.994-.159 1.994-1.053c0-.825-.479-.944-1.994-.944-.626 0-1.105-.02-1.447-.06m3.236-5.415c0-.904-.46-1.421-1.789-1.421s-1.838.517-1.838 1.42v.15c0 .994.45 1.47 1.838 1.47 1.388 0 1.789-.486 1.789-1.47v-.15zm9.823 1.203c-.069.595-.225.744-.812.744h-4.427v.358c0 1.183.674 1.65 2.277 1.65.655 0 1.339-.08 2.072-.259.508-.129.655 0 .655.567v.208c0 .537-.098.646-.655.795-.635.179-1.319.258-2.072.258-2.678 0-3.919-1.023-3.919-3.467v-1.411c0-2.355 1.182-3.518 3.538-3.518 2.219 0 3.382 1.153 3.382 3.359 0 .238-.02.467-.03.715m-5.248-.616h3.733v-.407c0-1.074-.625-1.6-1.876-1.6s-1.848.536-1.848 1.6v.407h-.009z" fill="#009D9E"/><path d="M15.394 13.484c0 .1.079.179.176.179.04 0 .078-.02.108-.05l2.277-1.957a1.755 1.755 0 0 0-.225-.258l-2.267 1.957s-.069.08-.069.13zm-11.406-.318c1.789-2.067 3.47-4.561 3.9-6.43.303-1.31 2.492-.466 2.394 1.064-.195 3.24-2.942 6.131-1.417 6.012 1.916-.15 4.477-2.117 6.852-4.114L4.672 1.053C1.994-1.004-.01-.169 0 4.62v9.44h3.353c.166-.288.371-.586.635-.894zm14.886.666l-.245.218h.255c0-.08 0-.149-.01-.219z" fill="#0A2F4D"/><path fill-rule="evenodd" clip-rule="evenodd" d="M16.87 15.77c0 .098.078.178.176.178.04 0 .078-.02.108-.05l1.72-1.59c0-.079.02-.168.01-.248h-.255l-1.71 1.59s-.049.08-.049.12zM2.238 19.187c.43-1.788.108-3.408 1.115-5.127H0v8.138c.948-.825 1.974-1.938 2.238-3.01z" fill="#0A2F4D"/><path fill-rule="evenodd" clip-rule="evenodd" d="M17.154 15.898l1.994-1.838h-.509l-1.71 1.59s-.05.08-.05.12c0 .098.08.178.177.178a.2.2 0 0 0 .107-.04m8.67-1.848h-3.587l-3.587 3.527s-.059.08-.059.13c0 .1.078.179.176.179.05 0 .088-.02.127-.06l3-2.941a.977.977 0 0 1 1.37-.01l.185.169s.528.616-.04 1.49c-.527.815-3.039 4.362-6.43 7.244l4.202 3.289c2.669 2.047 4.682 1.212 4.672-3.567l-.02-9.44-.009-.01z" fill="#009D9E"/><path fill-rule="evenodd" clip-rule="evenodd" d="M21.18 1.053L9.834 9.926c-.772 2.276-2.15 3.975-.968 3.886 2.971-.239 7.497-4.82 10.478-7.175a1.252 1.252 0 0 1 1.76.21c.43.546.351 1.33-.167 1.788l-5.473 4.72s-.069.079-.069.129c0 .1.079.179.176.179.04 0 .078-.02.108-.05l6.94-5.972a.976.976 0 0 1 1.407.13 1.03 1.03 0 0 1-.098 1.39L18.63 14.06h.508l4.036-3.736a.981.981 0 0 1 1.408.07 1.011 1.011 0 0 1-.049 1.4l-2.297 2.256h3.578l.02-9.44c.009-4.78-1.995-5.614-4.673-3.567" fill="#009D9E"/></g><defs><clipPath id="clip0_2255_7997"><path fill="#fff" d="M0 0h119v47H0z"/></clipPath></defs></svg>